<?xml version="1.0" encoding="iso-8859-1"?>
<!-- Uploaded to: SVG Repo, www.svgrepo.com, Generator: SVG Repo Mixer Tools -->
<svg fill="#000000" height="800px" width="800px" version="1.1" id="Layer_1" xmlns="http://www.w3.org/2000/svg" xmlns:xlink="http://www.w3.org/1999/xlink" 
	 viewBox="0 0 512 512" xml:space="preserve">
<g>
	<g>
		<path d="M478.33,188.125h-49.414l-151.113-75.557c12.227-7.403,20.418-20.834,20.418-36.143c0-20.541-14.743-37.703-34.205-41.458
			V8.017C264.017,3.589,260.428,0,256,0c-4.428,0-8.017,3.589-8.017,8.017v34.205c0,4.427,3.588,8.017,8.017,8.017
			c14.441,0,26.188,11.748,26.188,26.188S270.441,102.614,256,102.614s-26.188-11.748-26.188-26.188
			c0-4.427-3.588-8.017-8.017-8.017s-8.017,3.589-8.017,8.017c0,15.309,8.191,28.739,20.419,36.143L83.084,188.125H33.67
			c-13.851,0-25.119,11.268-25.119,25.119v273.637C8.551,500.732,19.819,512,33.67,512h444.66c13.851,0,25.119-11.268,25.119-25.119
			V213.244C503.449,199.394,492.181,188.125,478.33,188.125z M487.415,486.881c0,5.01-4.076,9.086-9.086,9.086H33.67
			c-5.01,0-9.086-4.076-9.086-9.086V213.244c0-5.01,4.076-9.086,9.086-9.086h256.534c4.428,0,8.017-3.589,8.017-8.017
			s-3.588-8.017-8.017-8.017H118.937L256,119.593l137.063,68.532h-68.654c-4.428,0-8.017,3.589-8.017,8.017s3.588,8.017,8.017,8.017
			h102.58c0.01,0,0.018,0.001,0.028,0.001c0.007,0,0.015-0.001,0.022-0.001h51.291c5.01,0,9.086,4.076,9.086,9.086V486.881z"/>
	</g>
</g>
<g>
	<g>
		<path d="M256,239.432c-13.851,0-25.119,11.268-25.119,25.119v171.023c0,13.851,11.268,25.119,25.119,25.119
			s25.119-11.268,25.119-25.119V264.551C281.119,250.7,269.851,239.432,256,239.432z M265.086,435.574
			c0,5.01-4.076,9.086-9.086,9.086s-9.086-4.076-9.086-9.086V264.551c0-5.01,4.076-9.086,9.086-9.086s9.086,4.076,9.086,9.086
			V435.574z"/>
	</g>
</g>
<g>
	<g>
		<path d="M332.96,239.432c-13.851,0-25.119,11.268-25.119,25.119v171.023c0,13.851,11.268,25.119,25.119,25.119
			c13.851,0,25.119-11.268,25.119-25.119V264.551C358.079,250.7,346.811,239.432,332.96,239.432z M342.046,435.574
			c0,5.01-4.076,9.086-9.086,9.086c-5.01,0-9.086-4.076-9.086-9.086V264.551c0-5.01,4.076-9.086,9.086-9.086
			c5.01,0,9.086,4.076,9.086,9.086V435.574z"/>
	</g>
</g>
<g>
	<g>
		<path d="M409.921,239.432c-13.851,0-25.119,11.268-25.119,25.119v171.023c0,13.851,11.268,25.119,25.119,25.119
			c13.851,0,25.119-11.268,25.119-25.119V264.551C435.04,250.7,423.771,239.432,409.921,239.432z M419.006,435.574
			c0,5.01-4.076,9.086-9.086,9.086c-5.01,0-9.086-4.076-9.086-9.086V264.551c0-5.01,4.076-9.086,9.086-9.086
			c5.01,0,9.086,4.076,9.086,9.086V435.574z"/>
	</g>
</g>
<g>
	<g>
		<path d="M179.04,239.432c-13.851,0-25.119,11.268-25.119,25.119v171.023c0,13.851,11.268,25.119,25.119,25.119
			s25.119-11.268,25.119-25.119V264.551C204.159,250.7,192.89,239.432,179.04,239.432z M188.125,435.574
			c0,5.01-4.076,9.086-9.086,9.086s-9.086-4.076-9.086-9.086V264.551c0-5.01,4.076-9.086,9.086-9.086s9.086,4.076,9.086,9.086
			V435.574z"/>
	</g>
</g>
<g>
	<g>
		<path d="M102.079,239.432c-13.851,0-25.119,11.268-25.119,25.119v171.023c0,13.851,11.268,25.119,25.119,25.119
			s25.119-11.268,25.119-25.119V264.551C127.198,250.7,115.93,239.432,102.079,239.432z M111.165,435.574
			c0,5.01-4.076,9.086-9.086,9.086s-9.086-4.076-9.086-9.086V264.551c0-5.01,4.076-9.086,9.086-9.086s9.086,4.076,9.086,9.086
			V435.574z"/>
	</g>
</g>
</svg>