<?xml version="1.0" encoding="iso-8859-1"?>
<!-- Uploaded to: SVG Repo, www.svgrepo.com, Generator: SVG Repo Mixer Tools -->
<svg fill="#000000" height="800px" width="800px" version="1.1" id="Layer_1" xmlns="http://www.w3.org/2000/svg" xmlns:xlink="http://www.w3.org/1999/xlink" 
	 viewBox="0 0 512.001 512.001" xml:space="preserve">
<g>
	<g>
		<path d="M189.217,333.923c-9.217,0-16.696,7.479-16.696,16.696v66.782c0,9.217,7.479,16.696,16.696,16.696
			c9.217,0,16.584-7.478,16.584-16.696v-66.782C205.801,341.401,198.434,333.923,189.217,333.923z"/>
	</g>
</g>
<g>
	<g>
		<path d="M255.999,267.141c-9.217,0-16.696,7.478-16.696,16.696v66.782c0,9.217,7.479,16.696,16.696,16.696
			c9.217,0,16.584-7.479,16.584-16.696v-66.782C272.584,274.618,265.217,267.141,255.999,267.141z"/>
	</g>
</g>
<g>
	<g>
		<path d="M502.805,457.717c-30.709-15.428-66.823-14.354-96.654,2.101v-86.522c42.402-40.826,66.891-97.209,66.891-156.242
			c0-119.674-97.369-217.043-217.043-217.043S38.957,97.38,38.957,217.054c0,59.033,24.378,115.415,66.782,156.242v86.516
			c-29.818-16.454-65.823-17.544-96.543-2.096c-8.239,4.13-11.554,14.173-7.413,22.413c4.13,8.239,14.152,11.576,22.413,7.413
			c23.065-11.587,50.63-9.532,71.967,5.403c36.239,25.392,83.086,25.392,119.326,0c24.598-17.218,56.402-17.229,81.021,0
			c18.119,12.695,38.891,19.043,59.663,19.043c21.859,0,44.451-8.383,59.652-19.033c21.348-14.946,48.946-16.999,71.978-5.413
			c8.261,4.163,18.283,0.826,22.413-7.413C514.359,471.891,511.043,461.847,502.805,457.717z M255.999,100.185
			c58.763,0,107.39,43.63,115.535,100.173c-87.868,0-142.421,0-231.219,0C148.445,143.793,197.228,100.185,255.999,100.185z
			 M372.868,476.277c-14.022,3.48-28.695,2.522-42.312-2.871c5.282-2.805,8.81-8.295,8.81-14.69V384.01
			c0-9.217-7.367-16.696-16.584-16.696c-9.217,0-16.696,7.478-16.696,16.696v74.706c0,0.439,0.095,0.85,0.13,1.281
			c-10.661-5.939-22.048-10.049-33.633-11.969v-30.628c0-9.217-7.367-16.696-16.584-16.696s-16.696,7.479-16.696,16.696v30.628
			c-15.044,2.494-29.72,8.294-42.968,17.568c-17.225,12.061-38.054,15.484-57.402,10.655c0.013-0.284,0.085-242.502,0.085-242.502
			c18.936,0,14.607,0,33.502,0v50.087c0,9.217,7.479,16.696,16.696,16.696c9.217,0,16.584-7.479,16.584-16.696V233.75h100.285
			v83.478c0,9.217,7.479,16.696,16.696,16.696c9.217,0,16.584-7.479,16.584-16.696V233.75h33.502V476.277z"/>
	</g>
</g>
</svg>